<svg width="20" height="20" viewBox="0 0 20 20" fill="none" xmlns="http://www.w3.org/2000/svg">
<path d="M20 10C20 15.5228 15.5228 20 10 20C4.47715 20 0 15.5228 0 10C0 4.47715 4.47715 0 10 0C15.5228 0 20 4.47715 20 10ZM6.69194 5.80806C6.44786 5.56398 6.05214 5.56398 5.80806 5.80806C5.56398 6.05214 5.56398 6.44786 5.80806 6.69194L9.11612 10L5.80806 13.3081C5.56398 13.5521 5.56398 13.9479 5.80806 14.1919C6.05214 14.436 6.44786 14.436 6.69194 14.1919L10 10.8839L13.3081 14.1919C13.5521 14.436 13.9479 14.436 14.1919 14.1919C14.436 13.9479 14.436 13.5521 14.1919 13.3081L10.8839 10L14.1919 6.69194C14.436 6.44786 14.436 6.05214 14.1919 5.80806C13.9479 5.56398 13.5521 5.56398 13.3081 5.80806L10 9.11612L6.69194 5.80806Z" fill="#FB2A2A"/>
</svg>
